<svg xmlns="http://www.w3.org/2000/svg" width="53.035" height="53.044" viewBox="0 0 53.035 53.044">
  <g id="noun-add-image-4322749" transform="translate(-3.33 -3.329)" opacity="0.3">
    <g id="Add_Image" data-name="Add Image" transform="translate(3.33 3.329)">
      <path id="Path_6123" data-name="Path 6123" d="M56.365,46.8a1.988,1.988,0,0,1-1.988,1.988H48.782v5.594a1.988,1.988,0,1,1-3.976,0V48.791h-5.6a1.988,1.988,0,1,1,0-3.976h5.6v-5.6a1.988,1.988,0,0,1,3.976,0v5.6h5.595A1.988,1.988,0,0,1,56.365,46.8ZM52.747,54.1a10.2,10.2,0,0,0,1.312-1.312H52.747Zm3.618-40.83V41.216a5.51,5.51,0,0,0-1.988-.358h-1.63v-1.63a5.955,5.955,0,0,0-5.963-5.963,5.472,5.472,0,0,0-3.578,1.272l-4.294-3.459a5.875,5.875,0,0,0-7.474,0L8.3,49.684a5.848,5.848,0,0,0,4.97,2.7H37.123a5.178,5.178,0,0,0,2.067.4h1.63v1.59a5.509,5.509,0,0,0,.358,1.988H13.269a9.935,9.935,0,0,1-9.144-6.122,1.412,1.412,0,0,1-.159-.358.146.146,0,0,1-.04-.119,9.227,9.227,0,0,1-.6-3.34V13.268a9.943,9.943,0,0,1,9.939-9.939H46.426a9.943,9.943,0,0,1,9.939,9.939Zm-30.692,6.8a6.4,6.4,0,1,0-6.4,6.361,6.4,6.4,0,0,0,6.4-6.361Z" transform="translate(-3.33 -3.329)"/>
    </g>
  </g>
</svg>
