<svg xmlns="http://www.w3.org/2000/svg" width="16.798" height="16.536" viewBox="0 0 16.798 16.536">
  <g id="noun_back_1863766" transform="translate(0 0)">
    <path id="Path_6117" data-name="Path 6117" d="M20.046,17.514H6.441l5.641-6.265a.756.756,0,0,0-1.128-1.008L4.184,17.762l-.023.03-.034.041-.023.034-.03.049-.023.045v.233c0,.019-.053.034-.053.071H4v.286l.023.045.03.049.023.034.034.041.023.03L10.9,26.272a.756.756,0,1,0,1.128-1.008L6.441,19.018H20.046a.752.752,0,1,0,0-1.5Z" transform="translate(-4 -9.989)" fill="#00c7d2"/>
  </g>
</svg>
