<svg xmlns="http://www.w3.org/2000/svg" width="44" height="34" viewBox="0 0 44 34">
  <g id="Group_6506" data-name="Group 6506" transform="translate(-1063.04 -7073.491)">
    <g id="noun-club-4473290" transform="translate(1062.629 7080.68)">
      <ellipse id="Ellipse_386" data-name="Ellipse 386" cx="3.5" cy="1.5" rx="3.5" ry="1.5" transform="translate(24.412 13.812)" fill="#52fb6a"/>
      <path id="Path_6148" data-name="Path 6148" d="M40,48.858v4.611h1.5V48.858A2.7,2.7,0,0,1,40,48.858Z" transform="translate(-11.119 -28.742)" fill="#52fb6a"/>
      <rect id="Rectangle_13437" data-name="Rectangle 13437" height="12" transform="translate(34.412 13.812)" fill="#52fb6a"/>
      <rect id="Rectangle_13438" data-name="Rectangle 13438" width="44" height="1" transform="translate(0.412 25.812)" fill="#52fb6a"/>
      <path id="Path_6150" data-name="Path 6150" d="M29.255,37H24v3.109a2.99,2.99,0,0,1,2.217,2.552l.475.475a4.655,4.655,0,0,0,2.563,1.306Z" transform="translate(-7.13 -27.696)" fill="#52fb6a"/>
      <path id="Path_6151" data-name="Path 6151" d="M45.539,51.727V27H5V51.727H6.5V36.714a.825.825,0,0,1,.751-.883h6.006a.825.825,0,0,1,.751.883V51.727h2.252V45.208a3.972,3.972,0,0,1-.618-3.357,3.241,3.241,0,0,1,2.12-2.362V35.831h-.751a.825.825,0,0,1-.751-.883V31.416a.825.825,0,0,1,.751-.883H33.527a.825.825,0,0,1,.751.883v3.532a.825.825,0,0,1-.751.883h-.751v3.658a3.241,3.241,0,0,1,2.12,2.362,3.972,3.972,0,0,1-.618,3.357v6.519H36.53V36.714a.825.825,0,0,1,.751-.883h6.006a.825.825,0,0,1,.751.883V51.727Z" transform="translate(-2.394 -27)" fill="#52fb6a"/>
      <rect id="Rectangle_13439" data-name="Rectangle 13439" height="12" transform="translate(37.412 13.812)" fill="#52fb6a"/>
      <rect id="Rectangle_13440" data-name="Rectangle 13440" width="16" height="4" transform="translate(15.412 3.812)" fill="#52fb6a"/>
      <path id="Path_6152" data-name="Path 6152" d="M26,47.436v5.542h3.754V48.423a6.119,6.119,0,0,1-3.378-1.535A2.983,2.983,0,0,1,26,47.436Z" transform="translate(-7.629 -28.251)" fill="#52fb6a"/>
      <path id="Path_6153" data-name="Path 6153" d="M38.255,40.109V37H33v7.443a4.655,4.655,0,0,0,2.563-1.308l.475-.475A2.99,2.99,0,0,1,38.255,40.109Z" transform="translate(-9.374 -27.696)" fill="#52fb6a"/>
      <rect id="Rectangle_13441" data-name="Rectangle 13441" height="12" transform="translate(6.412 13.812)" fill="#52fb6a"/>
      <rect id="Rectangle_13442" data-name="Rectangle 13442" height="12" transform="translate(10.412 13.812)" fill="#52fb6a"/>
      <path id="Path_6155" data-name="Path 6155" d="M36.754,47.436a2.981,2.981,0,0,1-.379-.548A6.119,6.119,0,0,1,33,48.423v4.555h3.754Z" transform="translate(-9.374 -28.251)" fill="#52fb6a"/>
      <circle id="Ellipse_387" data-name="Ellipse 387" cx="1.5" cy="1.5" r="1.5" transform="translate(15.412 13.812)" fill="#52fb6a"/>
      <path id="Path_6156" data-name="Path 6156" d="M22,48.858v4.611h1.5V48.858A2.7,2.7,0,0,1,22,48.858Z" transform="translate(-6.632 -28.742)" fill="#52fb6a"/>
    </g>
    <rect id="Rectangle_13443" data-name="Rectangle 13443" width="44" height="5" transform="translate(1063.04 7073.491)" fill="#52fb6a"/>
  </g>
</svg>
