<svg xmlns="http://www.w3.org/2000/svg" width="64" height="64" viewBox="0 0 64 64">
  <g id="Group_6484" data-name="Group 6484" transform="translate(-1195 -415)">
    <circle id="Ellipse_385" data-name="Ellipse 385" cx="32" cy="32" r="32" transform="translate(1195 415)" opacity="0.7"/>
    <path id="Path_6129" data-name="Path 6129" d="M20.408,13.58a.859.859,0,0,0-.272-.626L7.455.272A.855.855,0,0,0,6.2.272L4.842,1.633a.856.856,0,0,0,0,1.252L15.537,13.58,4.842,24.274a.856.856,0,0,0,0,1.252l1.36,1.36a.856.856,0,0,0,1.252,0L20.135,14.205A.858.858,0,0,0,20.408,13.58Z" transform="translate(1214.43 433)" fill="#fff"/>
  </g>
</svg>
