<svg id="Group_6485" data-name="Group 6485" xmlns="http://www.w3.org/2000/svg" width="64" height="64" viewBox="0 0 64 64">
  <circle id="Ellipse_385" data-name="Ellipse 385" cx="32" cy="32" r="32" opacity="0.7"/>
  <path id="Path_6129" data-name="Path 6129" d="M4.57,13.58a.859.859,0,0,1,.272-.626L17.523.272a.855.855,0,0,1,1.252,0l1.361,1.361a.856.856,0,0,1,0,1.252L9.441,13.58,20.135,24.274a.856.856,0,0,1,0,1.252l-1.36,1.36a.856.856,0,0,1-1.252,0L4.842,14.205A.858.858,0,0,1,4.57,13.58Z" transform="translate(19.592 18)" fill="#fff"/>
</svg>
