<svg xmlns="http://www.w3.org/2000/svg" width="18.71" height="11.153" viewBox="0 0 18.71 11.153">
  <g id="eye" transform="translate(0 -98.725)">
    <path id="Path_6178" data-name="Path 6178" d="M9.355,98.725c-3.575,0-6.816,1.956-9.208,5.132a.741.741,0,0,0,0,.884c2.392,3.18,5.634,5.136,9.208,5.136s6.816-1.956,9.208-5.132a.741.741,0,0,0,0-.884C16.171,100.681,12.93,98.725,9.355,98.725Zm.256,9.5a3.935,3.935,0,1,1,3.67-3.67A3.938,3.938,0,0,1,9.611,108.228Zm-.119-1.814a2.119,2.119,0,1,1,1.979-1.979A2.115,2.115,0,0,1,9.493,106.414Z" transform="translate(0)" fill="#a4a4a4"/>
  </g>
</svg>
