<svg xmlns="http://www.w3.org/2000/svg" width="27" height="27" viewBox="0 0 27 27">
  <g id="Group_6627" data-name="Group 6627" transform="translate(-480 -210)">
    <circle id="Ellipse_388" data-name="Ellipse 388" cx="13.5" cy="13.5" r="13.5" transform="translate(480 210)" fill="#0a0a0a" opacity="0.8"/>
    <g id="noun-delete-1052583" transform="translate(486.627 216.659)">
      <g id="Group_284" data-name="Group 284" transform="translate(0)">
        <path id="Path_496" data-name="Path 496" d="M22.3,10.4H19.091v-.42A1.684,1.684,0,0,0,17.412,8.3H14.859a1.684,1.684,0,0,0-1.679,1.679v.42H9.972a.672.672,0,0,0,0,1.344h.94l.269,7.977a2.678,2.678,0,0,0,2.687,2.6H18.4a2.678,2.678,0,0,0,2.687-2.6l.269-7.977h.94a.672.672,0,0,0,0-1.344Zm-7.776-.42a.337.337,0,0,1,.336-.336h2.553a.337.337,0,0,1,.336.336v.42H14.523Zm.269,8.834a.672.672,0,1,1-1.344,0V13.792a.672.672,0,0,1,1.344,0Zm2.015,0a.672.672,0,1,1-1.344,0V13.792a.672.672,0,1,1,1.344,0Zm2.015,0a.672.672,0,1,1-1.344,0V13.792a.672.672,0,1,1,1.344,0Z" transform="translate(-9.3 -8.3)" fill="#fff"/>
      </g>
    </g>
  </g>
</svg>
